Simulation
nRows=42
nColumns=15
endheader
time  TH_x TH_y TH_z SC_y  SC_z  SC_x  AC_y  AC_z  AC_x  GH_y  GH_z  GH_yy  EL_x  PS_y
0.0  0.000000  0.000000  0.000000  -36.13434494257058  -7.07419779355816  38.39498605173779  41.777368545921135  -28.81883923083043  -30.54227056242253  15.319132471048173  6.709288520886478  11.172551749437693  4.79970718064398  120.000000
0.031000000000000014  0.000000  0.000000  0.000000  -35.90938343574549  -6.433631379883761  33.66455795223732  43.3344791785958  -25.42567007863504  -26.476873561903922  19.77260448165943  7.586223032346683  6.398822897531534  5.110228228913446  120.000000
0.06200000000000003  0.000000  0.000000  0.000000  -35.654965945694535  -5.900183472236251  28.991609936975102  44.54518097364895  -22.02992160192237  -22.754785568074478  22.96928881245379  8.429963186408187  2.882104634394565  5.399312046468481  120.000000
0.09300000000000004  0.000000  0.000000  0.000000  -35.404268985779005  -5.433795291665642  24.444265064859692  45.43802775119567  -18.688374020052688  -19.346689628714067  25.30881020791681  9.189014658212972  0.24673020355116493  5.717334698149053  120.000000
0.12400000000000005  0.000000  0.000000  0.000000  -35.1734462915124  -5.021705375214315  20.08466698356617  46.05165693020847  -15.44590987302521  -16.227901125302253  27.029937441472992  9.826317018787371  -1.733092478377778  6.088876847031433  120.000000
0.15500000000000008  0.000000  0.000000  0.000000  -34.979088606396374  -4.633944220273739  15.971314467580351  46.430176868742244  -12.35284320667272  -13.378800779095604  28.306724804260632  10.31696910055398  -3.221071285728514  6.551563092486273  120.000000
0.18600000000000008  0.000000  0.000000  0.000000  -34.83172987043329  -4.247385826067764  12.157790809063956  46.60528019693384  -9.45415515660001  -10.781352237823315  29.216542117372338  10.64379680299972  -4.2950554499518585  7.132661346451002  120.000000
0.21700000000000008  0.000000  0.000000  0.000000  -34.74000367199858  -3.8434804581940716  8.671422174609702  46.61578189734447  -6.779759275898654  -8.415373045291112  29.788806760080355  10.804678188780542  -4.992109007891437  7.859369427938337  120.000000
0.2480000000000001  0.000000  0.000000  0.000000  -34.70650903381399  -3.4053837438249954  5.518277601109862  46.49735449499296  -4.344862761021037  -6.257460498821619  30.01244984450301  10.804597915947266  -5.313491530410213  8.756898421635482  120.000000
0.27900000000000014  0.000000  0.000000  0.000000  -34.73367964369357  -2.928934065837968  2.69091121322737  46.27948539267561  -2.15021471640767  -4.286907813356401  29.823264538863068  10.655973137968946  -5.210071998176359  9.845370557297873  120.000000
0.31000000000000016  0.000000  0.000000  0.000000  -34.82064474183422  -2.417410108000813  0.17610514711454828  45.98871769522752  -0.18966949986857087  -2.4895408973671795  29.122200238368045  10.377212557001691  -4.596192990172569  11.13709803936025  120.000000
0.34100000000000014  0.000000  0.000000  0.000000  -34.964690308695175  -1.8794942079705508  -2.039591576384927  45.64818085582009  1.5456099344107972  -0.8580865049676222  27.77862845817355  9.992665220776713  -3.3493076849976022  12.63416700054251  120.000000
0.37200000000000016  0.000000  0.000000  0.000000  -35.16062450533914  -1.32702056952943  -3.9700714737045417  45.27820083625792  3.066533729974024  0.6105726698904557  25.63861720029812  9.532972075405924  -1.3152846754121814  14.32499836720641  120.000000
0.4030000000000002  0.000000  0.000000  0.000000  -35.40115832814507  -0.7727712882070954  -5.628725137386693  44.89555589725255  4.38488218446803  1.9167089962622752  22.537671818268162  9.035879829285745  1.6796381835301761  16.185903388361275  120.000000
0.43400000000000016  0.000000  0.000000  0.000000  -35.67713383536727  -0.22824331785438262  -7.029751568228315  44.51290402117949  5.513408234373826  3.059522955162218  18.332334938343852  8.546596686084644  5.7963739156517144  18.184336665659746  120.000000
0.4650000000000002  0.000000  0.000000  0.000000  -35.97862462633152  0.298018120414418  -8.187828125245519  44.136725004363534  6.464981642933847  4.037993006712946  12.957511339744572  8.115960990579556  11.122698866415574  20.28466580532626  120.000000
0.4960000000000002  0.000000  0.000000  0.000000  -36.296126918367314  0.8015804036577057  -9.11886106877691  43.767443184051004  7.2523759639414545  4.851089335748121  6.515960996474464  7.795377461163248  17.580436961533728  22.452197905619187  120.000000
0.5270000000000002  0.000000  0.000000  0.000000  -36.62259534795551  1.2823482697096036  -9.839045909783623  43.39867340153305  7.887177923344696  5.498314229361708  -0.6519193182435961  7.6262480212323736  24.851926147692254  24.656589109216693  120.000000
0.5580000000000003  0.000000  0.000000  0.000000  -36.954904664441116  1.7443473269822392  -10.364319538224292  43.019890353147396  8.3793054617485  5.9794905025023715  -7.989894886148725  7.628014385215601  32.39961365876258  26.872769442097834  120.000000
0.5890000000000003  0.000000  0.000000  0.000000  -37.29460250906455  2.1948109328773446  -10.708609755693272  42.61950180553682  8.736141126953479  6.295096383162131  -14.88723895055157  7.791646407434945  39.62610861463886  29.081101044142912  120.000000
0.6200000000000003  0.000000  0.000000  0.000000  -37.647629805733935  2.6427903650050593  -10.882501526036359  42.18936473220406  8.96228388345948  6.446525801201793  -20.87524693597681  8.085220243300528  46.07079788013895  31.26706981868618  120.000000
0.6510000000000002  0.000000  0.000000  0.000000  -38.02286319514002  3.0984704433738455  -10.891833332528487  41.72684407774707  9.05852246163462  6.438361578953418  -25.732361157315626  8.467795961966882  51.51487172110621  33.421938712328455  120.000000
0.6820000000000003  0.000000  0.000000  0.000000  -38.43028897529168  3.57317854529087  -10.73796251496513  41.23853455886173  9.021958658377251  6.279070665232473  -29.451690001210075  8.904383305883542  55.94938318570192  35.54347607924938  120.000000
0.7130000000000003  0.000000  0.000000  0.000000  -38.879696176830585  4.079558316810125  -10.418417928309827  40.74021974568309  8.846811154117724  5.981009806693129  -32.15795347154281  9.374364452878508  59.49201805385472  37.63747639610739  120.000000
0.7440000000000003  0.000000  0.000000  0.000000  -39.379461504973506  4.630424528832791  -9.92984416183025  40.25571479792491  8.526770307719879  5.56099541692848  -34.02940890254152  9.872882660531534  62.30914815763868  39.715630155789924  120.000000
0.7750000000000004  0.000000  0.000000  0.000000  -39.93572323118075  5.237055858986521  -9.273416218567668  39.81104603249952  8.058298741600797  5.044186854151691  -35.256395574339194  10.406557208232906  64.57480026533797  41.79278330551583  120.000000
0.8060000000000004  0.000000  0.000000  0.000000  -40.55047113126581  5.907118902560179  -8.456380206603464  39.43066742355371  7.4424303170211035  4.461543705942891  -36.01572931921704  10.987165704991726  66.44677801366284  43.88341486603374  120.000000
0.8370000000000004  0.000000  0.000000  0.000000  -41.21935266353541  6.642131556036074  -7.488101927446543  39.13451811587007  6.68511579716209  3.839858425664617  -36.454461794118764  11.62447024172531  68.05183438751145  45.999136324343695  120.000000
0.8680000000000003  0.000000  0.000000  0.000000  -41.932180871299124  7.436654768025387  -6.380343995990057  38.932903779131955  5.799112369606478  3.19871394236639  -36.6815718852058  12.319758903336483  69.47975905325869  48.1471793579113  120.000000
0.8990000000000004  0.000000  0.000000  0.000000  -42.67569062947137  8.277619398713583  -5.147095764677215  38.81920832406532  4.80414114242367  2.551663949279796  -36.7747355709961  13.062945302302964  70.79215187692435  50.33030223815884  120.000000
0.9300000000000004  0.000000  0.000000  0.000000  -43.43525340424712  9.14540876987301  -3.8049313963033917  38.77156282430814  3.7266969961748218  1.9062836274656367  -36.78593767122102  13.834287307621446  72.02851129190893  52.54640184669553  120.000000
0.9610000000000004  0.000000  0.000000  0.000000  -44.19491351977385  10.018718625436438  -2.3740486090085313  38.76423485722849  2.5987604552595  1.2637530603485587  -36.74405590311162  14.608045124836407  73.20773362035933  54.78824384333675  120.000000
0.9920000000000004  0.000000  0.000000  0.000000  -44.93874701953851  10.879806532528631  -0.8779496282296457  38.77726977069569  1.4539167542637588  0.6217202050043074  -36.66089888544824  15.357382701916558  74.33311560556356  57.04353877822276  120.000000
1.0230000000000004  0.000000  0.000000  0.000000  -45.6529002676912  11.716914326371663  0.6587152274270855  38.79738786544875  0.3225400432871978  -0.02039978354432812  -36.54351527676832  16.059113034941976  75.40490373864436  59.295397965606014  120.000000
1.0540000000000005  0.000000  0.000000  0.000000  -46.327798258957024  12.523273830660903  2.2122271834373843  38.81602314092519  -0.7711565719537388  -0.6583319471040319  -36.400580842949616  16.69665773220655  76.42616735324067  61.52296822147697  120.000000
1.0850000000000004  0.000000  0.000000  0.000000  -46.958511118353236  13.294812799559324  3.760684138453811  38.82838572070793  -1.8092656294703227  -1.2832129181544671  -36.24305316698594  17.26041952629456  77.40268027566162  63.70278077485641  120.000000
1.1160000000000005  0.000000  0.000000  0.000000  -47.54371171301416  14.029052752527017  5.283913309698881  38.832845325618266  -2.7789131282766726  -1.8836931427884553  -36.08257036046985  17.74649006327793  78.34103286262838  65.81147612768919  120.000000
1.1470000000000005  0.000000  0.000000  0.000000  -48.083606647081126  14.724234786827836  6.762930764827561  38.83131970030981  -3.6702177006419463  -2.44860287790261  -35.929496472042906  18.154940938401268  79.24660231995388  67.82839909028569  120.000000
1.1780000000000006  0.000000  0.000000  0.000000  -48.5795107124983  15.377697162358096  8.18027337584323  38.82860127716412  -4.475424792761898  -2.9677972296659587  -35.79300317790267  18.489208785576626  80.12254689037829  69.73696394397851  120.000000
1.2090000000000005  0.000000  0.000000  0.000000  -49.03499321862415  15.984609279083655  9.520956643667036  38.829710036803704  -5.189154810289622  -3.4314575910390106  -35.68352959063689  18.755867899626363  80.9712152277125  71.52524353282205  120.000000
1.2400000000000007  0.000000  0.000000  0.000000  -49.45418533149773  16.538403904186907  10.771913196949724  38.840237154379814  -5.807574291803757  -3.8309973783588074  -35.61186694106176  18.96390677554671  81.79412967983731  73.1852537590199  120.000000
1.2710000000000006  0.000000  0.000000  0.000000  -49.839841708085125  17.03376378502673  11.921403171855157  38.86616876111049  -6.327601940928918  -4.1599152559775225  -35.58678800131987  19.123099804440425  82.59172385798762  74.71300705669593  120.000000
